<?xml version="1.0" standalone="no"?>
<svg viewBox="0 0 200 200" xmlns="http://www.w3.org/2000/svg">
  <path fill="#22FFB8" d="M38.2,-57.3C48.7,-52.6,55.9,-40.7,64,-27.8C72,-14.9,80.9,-1,76,8.7C71.1,18.4,52.4,23.8,39.9,30C27.4,36.2,21.1,43.2,11.5,51.8C1.9,60.4,-10.9,70.6,-18.3,66.6C-25.8,62.5,-27.8,44.2,-34.2,32.2C-40.6,20.2,-51.4,14.6,-59.5,4.3C-67.6,-6,-73,-20.9,-69.4,-32.8C-65.7,-44.7,-52.9,-53.6,-39.8,-57.1C-26.7,-60.7,-13.4,-58.9,0.2,-59.2C13.8,-59.6,27.6,-62,38.2,-57.3Z" transform="translate(100 100)" />
</svg>
