<?xml version="1.0" standalone="no"?>
<!DOCTYPE svg PUBLIC "-//W3C//DTD SVG 20010904//EN"
 "http://www.w3.org/TR/2001/REC-SVG-20010904/DTD/svg10.dtd">
<svg version="1.0" xmlns="http://www.w3.org/2000/svg"
 width="684.000000pt" height="100.000000pt" viewBox="0 0 684.000000 100.000000"
 preserveAspectRatio="xMidYMid meet">

<g transform="translate(0.000000,100.000000) scale(0.100000,-0.100000)"
fill="#000000" stroke="none">
<path d="M2890 500 l0 -500 75 0 75 0 0 500 0 500 -75 0 -75 0 0 -500z"/>
<path d="M5780 728 l0 -193 -26 33 c-14 17 -47 44 -72 60 -43 25 -56 27 -147
27 -115 0 -154 -14 -218 -78 -66 -66 -82 -114 -82 -247 0 -101 3 -121 24 -164
51 -103 153 -166 270 -166 82 0 146 25 203 80 l48 46 0 -63 0 -63 35 0 35 0 0
460 0 460 -35 0 -35 0 0 -192z m-169 -140 c98 -29 169 -134 169 -249 0 -166
-95 -272 -243 -271 -102 0 -174 41 -220 127 -18 33 -22 57 -22 135 0 86 3 100
28 146 57 103 172 147 288 112z"/>
<path d="M6010 879 c-26 -47 25 -100 69 -72 20 13 26 60 10 79 -18 22 -66 18
-79 -7z"/>
<path d="M971 660 c-100 -21 -180 -81 -229 -173 -24 -47 -27 -62 -27 -152 0
-81 4 -109 21 -146 31 -67 87 -124 152 -156 50 -24 69 -28 147 -28 70 0 100 5
136 21 50 24 119 80 118 98 0 6 -23 28 -50 49 l-50 38 -36 -31 c-45 -40 -72
-50 -132 -50 -72 0 -140 53 -157 122 l-6 28 231 0 231 0 0 63 c0 80 -21 151
-63 213 -55 82 -176 126 -286 104z m131 -136 c34 -17 55 -49 64 -92 l7 -32
-157 0 -157 0 7 23 c11 36 31 71 50 89 43 38 126 43 186 12z"/>
<path d="M3595 651 c-50 -13 -92 -39 -119 -73 l-26 -33 0 48 c0 46 -1 47 -30
47 l-30 0 0 -320 0 -320 34 0 35 0 3 233 3 234 28 42 c75 113 264 104 323 -16
17 -33 19 -66 22 -265 l3 -228 35 0 34 0 0 219 0 219 28 53 c38 72 92 102 178
97 49 -3 69 -10 99 -32 68 -52 75 -81 75 -333 l0 -223 35 0 35 0 0 213 c0 246
-9 294 -68 359 -40 45 -93 72 -159 83 -86 14 -200 -42 -239 -117 l-15 -29 -32
48 c-50 75 -164 117 -252 94z"/>
<path d="M4710 651 c-92 -28 -170 -111 -201 -213 -72 -237 87 -452 322 -436
80 6 158 40 208 92 l33 34 -25 17 c-24 16 -27 15 -47 -5 -95 -95 -295 -93
-377 4 -32 38 -62 103 -63 134 l0 22 276 0 277 0 -6 76 c-10 133 -79 232 -185
268 -47 17 -168 20 -212 7z m183 -63 c61 -18 122 -82 141 -147 9 -30 16 -61
16 -68 0 -10 -49 -13 -245 -13 l-245 0 0 23 c0 33 43 118 76 151 61 61 163 82
257 54z"/>
<path d="M6413 640 c-63 -25 -123 -82 -160 -152 -25 -48 -28 -63 -28 -153 0
-126 23 -183 101 -254 69 -63 132 -85 223 -79 79 6 135 32 191 90 l40 42 0
-67 0 -67 30 0 30 0 0 325 0 325 -30 0 -30 0 0 -61 0 -61 -42 44 c-60 61 -108
82 -198 85 -57 2 -87 -2 -127 -17z m196 -56 c105 -31 172 -132 170 -258 -1
-72 -13 -109 -55 -169 -82 -115 -277 -121 -373 -12 -48 55 -64 100 -65 180 -1
86 16 136 62 187 72 79 158 103 261 72z"/>
<path d="M21 598 c11 -29 66 -174 123 -323 l103 -270 83 0 83 0 118 320 c65
176 119 321 119 323 0 1 -35 2 -78 2 l-79 0 -78 -220 c-43 -121 -81 -220 -85
-220 -3 0 -14 21 -23 48 -9 26 -44 125 -78 220 l-61 172 -84 0 -83 0 20 -52z"/>
<path d="M1401 598 c11 -29 66 -174 123 -323 l103 -270 83 0 84 0 118 320 c65
176 118 321 118 323 0 1 -35 2 -79 2 l-78 0 -78 -220 c-43 -121 -81 -220 -84
-220 -4 0 -15 21 -24 48 -9 26 -44 125 -78 220 l-61 172 -84 0 -83 0 20 -52z"/>
<path d="M2308 632 c-100 -36 -183 -121 -208 -212 -5 -19 -10 -66 -10 -105 0
-119 66 -227 173 -282 27 -13 51 -22 53 -20 5 5 55 390 51 394 -2 1 -20 -54
-42 -122 -21 -69 -42 -125 -47 -125 -16 0 -67 93 -73 135 -14 90 42 185 130
222 47 19 55 33 55 96 0 43 -9 45 -82 19z"/>
<path d="M2433 636 c4 -10 7 -35 7 -56 0 -37 2 -40 57 -67 38 -19 67 -42 87
-71 56 -79 45 -205 -22 -266 -21 -18 -21 -18 -59 104 -20 67 -39 118 -40 114
-4 -14 43 -373 50 -380 13 -13 114 55 154 105 157 191 43 488 -203 528 -33 5
-37 4 -31 -11z"/>
<path d="M6020 325 l0 -325 30 0 30 0 0 325 0 325 -30 0 -30 0 0 -325z"/>
<path d="M2411 615 c-22 -284 -42 -522 -47 -562 l-5 -53 55 0 c55 0 55 0 51
28 -3 15 -14 151 -25 302 -19 243 -26 320 -29 285z"/>
</g>
</svg>
